<?xml version="1.0" encoding="iso-8859-1"?>
<!-- Generator: Adobe Illustrator 19.0.0, SVG Export Plug-In . SVG Version: 6.00 Build 0)  -->
<svg version="1.1" id="Capa_1" xmlns="http://www.w3.org/2000/svg" xmlns:xlink="http://www.w3.org/1999/xlink" x="0px" y="0px"
	 viewBox="0 0 472.615 472.615" style="enable-background:new 0 0 472.615 472.615;" xml:space="preserve">
<g>
	<g>
		<path d="M236.308,0.985C106.338,0.985,0,106.339,0,236.308s106.338,235.323,236.308,235.323
			c129.969,0,236.308-105.354,236.308-235.323S366.277,0.985,236.308,0.985z M236.308,451.938c-51.2,0-98.461-17.723-135.877-47.261
			l86.646-58.092v-16.739c13.785,7.877,30.523,12.8,54.154,12.8c1.969,0,3.938,0,5.908,0c12.8,0,22.646-3.938,31.508-7.877
			l3.938,23.631l90.585,45.292C335.754,434.216,288.492,451.938,236.308,451.938z M156.554,194.954
			c0-0.985-9.846-55.139,19.692-83.692c27.569-27.569,76.8-20.677,82.708-19.692c6.892,1.969,59.077,20.677,57.108,65.969
			l-5.908,30.523l2.954,3.938c0,0,13.785,15.754,11.815,33.477c-0.985,9.846-6.892,17.723-17.723,25.6l-3.938,2.954v4.923
			c0,2.954-2.954,63.015-55.139,64.985c-49.231,1.969-72.861-17.723-81.723-65.969l-0.985-4.923l-8.862-3.938
			c-8.861-5.908-12.8-12.8-13.785-19.692c-0.985-12.8,11.815-25.6,11.815-25.6l3.938-3.938L156.554,194.954z M386.954,390.892
			l0.985-1.969L300.308,345.6l-3.938-23.631c15.754-16.739,22.646-40.369,23.631-57.108c12.8-9.846,20.677-22.646,22.646-36.431
			c1.969-19.692-7.877-37.415-13.785-44.308l4.923-22.646v-0.985c3.938-63.015-67.938-86.646-70.892-87.631h-0.985
			c-2.954,0-64.984-10.831-101.415,25.6c-30.523,30.523-27.569,80.739-25.6,96.492c-5.908,6.892-15.754,20.677-13.785,37.415
			c0.985,13.785,8.861,24.615,22.646,34.462l1.969,0.985c2.954,15.754,8.861,33.477,20.677,47.261v22.646l-82.708,55.138
			c-38.4-41.354-64-96.492-64-156.554c0-119.139,97.477-215.631,216.615-215.631s216.615,96.492,216.615,215.631
			C452.923,297.354,427.323,351.508,386.954,390.892z"/>
	</g>
</g>
<g>
</g>
<g>
</g>
<g>
</g>
<g>
</g>
<g>
</g>
<g>
</g>
<g>
</g>
<g>
</g>
<g>
</g>
<g>
</g>
<g>
</g>
<g>
</g>
<g>
</g>
<g>
</g>
<g>
</g>
</svg>
